<svg width="170" height="74" fill="none" xmlns="http://www.w3.org/2000/svg"><g clip-path="url(#a)" fill="#13304F"><path d="M29.66 16.853H12.917v1.265h16.741v-1.265Z"/><path d="M26.684 14.922H15.892v2.915h10.793v-2.915ZM26.684 8.977H15.892v2.915h10.793V8.977Z"/><path d="M17.411 11.513h-1.52v3.409h1.52v-3.41ZM20.53 11.513h-1.521v3.409h1.52v-3.41ZM23.57 11.513h-1.521v3.409h1.52v-3.41ZM26.686 11.513h-1.52v3.409h1.52v-3.41ZM27.704 9.589v-1.08L21.29 4.808 14.873 8.51v1.079h12.831Z"/><path d="M21.838 6.13c-.11-3.403-.315-5.695-.55-5.695-.234 0-.44 2.292-.549 5.695h1.1-.001ZM14.357 21.687l-.68 12.595 14.804-7.768-.261-4.827a1.524 1.524 0 0 1 1.438-1.024v-1.724H12.917v1.724c.667 0 1.231.428 1.439 1.024h.001ZM28.817 32.726l-15.496 8.13-.572 10.567 16.606-8.713-.538-9.984Z"/><path d="M38.306 22.136H29.54l.217 3.397h8.55c.483 0 .872.39.872.872v25.002a14.907 14.907 0 0 1-7.457 12.911.824.824 0 0 1-1.235-.668l-.795-14.728-17.296 9.075-.306 5.653a.823.823 0 0 1-1.234.668 14.908 14.908 0 0 1-7.457-12.91V26.404c0-.483.392-.872.872-.872h8.55l.218-3.397H4.27A4.27 4.27 0 0 0 0 26.405v25.002A18.355 18.355 0 0 0 9.156 67.26l10.634 6.137a3 3 0 0 0 2.995 0L33.42 67.26a18.355 18.355 0 0 0 9.155-15.853V26.405a4.27 4.27 0 0 0-4.27-4.27h.001Z"/></g><path d="M61.773 37.096c.54 0 .979-.069 1.317-.206.347-.137.617-.314.81-.532.194-.217.327-.463.399-.737.072-.274.109-.552.109-.834 0-.322-.044-.612-.133-.87a1.379 1.379 0 0 0-.435-.653c-.202-.177-.472-.314-.81-.41-.339-.098-.766-.146-1.281-.146h-2.853v4.388h2.877Zm-2.877-11.47v4.35h2.127c.452 0 .859-.032 1.221-.096.363-.065.67-.177.919-.339.258-.16.451-.382.58-.664.137-.282.206-.637.206-1.064 0-.419-.053-.765-.158-1.04a1.495 1.495 0 0 0-.483-.676 2.033 2.033 0 0 0-.834-.363 5.598 5.598 0 0 0-1.185-.109h-2.393Zm2.393-3.059c1.217 0 2.253.113 3.107.339.854.225 1.55.544 2.09.955.54.41.931.91 1.173 1.498.25.589.375 1.245.375 1.97 0 .395-.057.778-.17 1.149-.112.362-.29.705-.531 1.027a4.215 4.215 0 0 1-.93.87 5.847 5.847 0 0 1-1.367.69c1.16.281 2.019.737 2.575 1.365.556.629.834 1.442.834 2.441 0 .75-.145 1.447-.435 2.091a4.815 4.815 0 0 1-1.282 1.693c-.556.475-1.244.85-2.066 1.124-.822.266-1.761.399-2.817.399h-7.034v-17.61h6.478ZM78.499 25.71v4.11h5.535v3.021H78.5v4.194h7.228v3.143H74.389v-17.61h11.338v3.142h-7.228ZM100.937 33.445l-1.631-4.822c-.121-.306-.25-.665-.387-1.076a35.63 35.63 0 0 1-.411-1.354 19.04 19.04 0 0 1-.774 2.454l-1.62 4.798h4.823Zm6.491 6.733h-3.167c-.354 0-.64-.081-.858-.242a1.619 1.619 0 0 1-.496-.64l-1.039-3.07h-6.696l-1.04 3.07c-.088.225-.25.43-.483.616-.225.177-.508.266-.846.266h-3.19l6.816-17.61h4.182l6.817 17.61ZM123.479 35.62c.097 0 .194.021.29.061.097.033.19.093.278.182l1.62 1.704a6.76 6.76 0 0 1-2.671 2.103c-1.064.467-2.325.7-3.783.7-1.338 0-2.538-.225-3.602-.676a7.96 7.96 0 0 1-2.695-1.885 8.405 8.405 0 0 1-1.692-2.853c-.395-1.104-.593-2.3-.593-3.59 0-1.313.214-2.518.641-3.613a8.385 8.385 0 0 1 1.801-2.853 8.103 8.103 0 0 1 2.78-1.861c1.08-.443 2.268-.665 3.565-.665.661 0 1.281.06 1.862.181a8.473 8.473 0 0 1 1.643.484 7.347 7.347 0 0 1 2.539 1.68l-1.378 1.85a1.946 1.946 0 0 1-.315.313c-.12.089-.29.133-.507.133a.908.908 0 0 1-.411-.096 5.541 5.541 0 0 1-.411-.23 10.137 10.137 0 0 0-.484-.302 2.912 2.912 0 0 0-.616-.302 4.518 4.518 0 0 0-.834-.242 5.594 5.594 0 0 0-1.112-.097c-.677 0-1.297.125-1.861.375-.556.25-1.04.616-1.451 1.1-.402.475-.717 1.063-.942 1.764-.218.693-.327 1.487-.327 2.381 0 .903.121 1.705.363 2.406.25.7.584 1.293 1.003 1.776.427.476.923.838 1.487 1.088.564.25 1.168.375 1.813.375.37 0 .709-.016 1.015-.049.306-.04.592-.1.858-.18a3.95 3.95 0 0 0 .75-.34 5.13 5.13 0 0 0 .713-.543c.096-.08.201-.145.314-.194a.776.776 0 0 1 .35-.084ZM147.717 31.366c0 1.274-.221 2.458-.665 3.554a8.547 8.547 0 0 1-1.849 2.864c-.798.806-1.76 1.439-2.889 1.898-1.12.46-2.365.689-3.734.689-1.37 0-2.619-.23-3.747-.689-1.128-.46-2.095-1.092-2.901-1.898a8.702 8.702 0 0 1-1.861-2.864c-.435-1.096-.653-2.28-.653-3.554 0-1.273.218-2.457.653-3.553a8.566 8.566 0 0 1 1.861-2.852c.806-.806 1.773-1.439 2.901-1.898 1.128-.46 2.377-.689 3.747-.689 1.369 0 2.614.234 3.734.701 1.129.46 2.091 1.092 2.889 1.898a8.416 8.416 0 0 1 1.849 2.852c.444 1.096.665 2.276.665 3.541Zm-4.182 0c0-.87-.113-1.651-.338-2.344-.226-.701-.552-1.294-.979-1.777a4.146 4.146 0 0 0-1.547-1.112c-.613-.258-1.31-.387-2.091-.387-.79 0-1.495.13-2.115.387a4.25 4.25 0 0 0-1.56 1.112c-.419.483-.741 1.076-.967 1.777-.225.693-.338 1.474-.338 2.344 0 .879.113 1.668.338 2.37.226.692.548 1.28.967 1.764.427.483.947.854 1.56 1.112.62.25 1.325.375 2.115.375.781 0 1.478-.125 2.091-.375a4.144 4.144 0 0 0 1.547-1.112c.427-.483.753-1.072.979-1.765.225-.7.338-1.49.338-2.369ZM168.88 22.567v17.61h-2.128c-.314 0-.58-.048-.797-.145-.21-.104-.419-.281-.629-.531l-8.303-10.503c.032.314.052.62.06.918.016.29.024.564.024.822v9.44h-3.602v-17.61h2.152c.177 0 .326.008.447.024s.23.048.326.096c.097.04.19.101.278.182.089.08.19.189.303.326l8.376 10.576a14.114 14.114 0 0 1-.085-.98 18.347 18.347 0 0 1-.024-.906v-9.319h3.602ZM56.825 52.217v3.328h4.215v1.672h-4.215v4.58h-2.1V50.553h7.093v1.664h-4.993ZM68.59 61.797h-2.1V50.553h2.1v11.244ZM83.54 50.553v11.244h-1.072c-.166 0-.306-.026-.42-.078a1.041 1.041 0 0 1-.32-.28l-5.87-7.496c.031.342.046.659.046.949v6.905h-1.842V50.553h1.096c.088 0 .163.005.225.015.068.006.125.021.172.047.051.02.1.054.147.101.047.042.099.099.156.171l5.894 7.528c-.015-.182-.028-.36-.039-.537a8.349 8.349 0 0 1-.015-.49v-6.835h1.843ZM94.94 57.551l-1.368-3.74a8.15 8.15 0 0 1-.21-.59 19.292 19.292 0 0 1-.218-.74 15.06 15.06 0 0 1-.21.747 9.55 9.55 0 0 1-.21.599l-1.36 3.724h3.577Zm3.694 4.246h-1.617a.704.704 0 0 1-.443-.132.878.878 0 0 1-.257-.342l-.84-2.294H90.82l-.84 2.294a.746.746 0 0 1-.24.327.673.673 0 0 1-.444.147h-1.633l4.425-11.244h2.13l4.417 11.244ZM112.232 50.553v11.244h-1.073c-.166 0-.306-.026-.42-.078a1.041 1.041 0 0 1-.318-.28l-5.871-7.496c.031.342.046.659.046.949v6.905h-1.843V50.553h1.097c.088 0 .163.005.225.015a.41.41 0 0 1 .171.047c.052.02.101.054.148.101.047.042.099.099.156.171l5.894 7.528c-.016-.182-.029-.36-.039-.537a8.738 8.738 0 0 1-.016-.49v-6.835h1.843ZM125.413 59.145c.114 0 .215.045.303.133l.825.894a4.518 4.518 0 0 1-1.688 1.299c-.663.3-1.462.45-2.395.45-.834 0-1.586-.142-2.255-.427a4.98 4.98 0 0 1-1.703-1.19 5.253 5.253 0 0 1-1.089-1.82 6.916 6.916 0 0 1-.373-2.309c0-.845.135-1.617.405-2.317a5.354 5.354 0 0 1 1.135-1.82 5.146 5.146 0 0 1 1.757-1.182c.679-.285 1.431-.428 2.255-.428.819 0 1.545.135 2.178.405.637.27 1.179.622 1.625 1.057l-.7.972a.61.61 0 0 1-.163.164.436.436 0 0 1-.265.07.541.541 0 0 1-.241-.063 6.623 6.623 0 0 1-.272-.163 6.489 6.489 0 0 0-.342-.218 2.631 2.631 0 0 0-.451-.21 3.21 3.21 0 0 0-.599-.163 3.824 3.824 0 0 0-.777-.07c-.503 0-.965.09-1.385.272a2.954 2.954 0 0 0-1.073.778 3.55 3.55 0 0 0-.7 1.244c-.165.487-.248 1.045-.248 1.672 0 .633.088 1.195.264 1.688.181.492.425.907.731 1.244a3.15 3.15 0 0 0 1.081.777c.415.176.86.265 1.337.265.286 0 .542-.016.77-.047.234-.031.446-.08.638-.148.197-.067.381-.153.552-.256.176-.11.35-.241.521-.397a.641.641 0 0 1 .163-.109.37.37 0 0 1 .179-.047ZM133.028 61.797h-2.099V50.553h2.099v11.244ZM144.442 57.551l-1.369-3.74a8.6 8.6 0 0 1-.21-.59 19.278 19.278 0 0 1-.218-.74c-.067.265-.137.514-.21.747a8.837 8.837 0 0 1-.21.599l-1.36 3.724h3.577Zm3.693 4.246h-1.617a.702.702 0 0 1-.443-.132.879.879 0 0 1-.257-.342l-.84-2.294h-4.658l-.84 2.294a.736.736 0 0 1-.241.327.672.672 0 0 1-.443.147h-1.633l4.425-11.244h2.13l4.417 11.244ZM158.841 60.07v1.727h-6.587V50.553h2.092v9.518h4.495ZM169.277 52.598a.749.749 0 0 1-.203.241.438.438 0 0 1-.256.07.708.708 0 0 1-.358-.117 6.809 6.809 0 0 0-.451-.272 3.482 3.482 0 0 0-.622-.264 2.49 2.49 0 0 0-.832-.125c-.29 0-.544.037-.762.11a1.588 1.588 0 0 0-.552.287 1.183 1.183 0 0 0-.327.451 1.45 1.45 0 0 0-.109.568c0 .264.073.484.218.66.15.177.347.327.591.452.244.124.521.236.832.334.311.099.63.205.957.319.326.109.645.238.956.389.311.145.588.331.832.56.244.222.438.497.583.824.151.326.226.723.226 1.19 0 .508-.088.985-.265 1.43-.171.441-.425.827-.762 1.16a3.615 3.615 0 0 1-1.22.777c-.483.186-1.035.28-1.657.28-.357 0-.71-.037-1.057-.11a5.428 5.428 0 0 1-1.003-.295 5.391 5.391 0 0 1-.895-.466 4.295 4.295 0 0 1-.746-.607l.614-1.003a.615.615 0 0 1 .202-.179.49.49 0 0 1 .265-.078c.129 0 .269.055.42.164.15.103.329.22.536.35.207.13.449.248.723.357.28.104.615.156 1.003.156.597 0 1.058-.14 1.385-.42.326-.285.489-.692.489-1.22 0-.296-.075-.537-.225-.724a1.71 1.71 0 0 0-.583-.467 4.218 4.218 0 0 0-.832-.326 27.475 27.475 0 0 1-.949-.288 8.206 8.206 0 0 1-.949-.373 3.08 3.08 0 0 1-.832-.568 2.659 2.659 0 0 1-.591-.87c-.145-.353-.217-.786-.217-1.3 0-.409.08-.808.241-1.197.165-.389.404-.733.715-1.034.311-.3.695-.542 1.151-.723.456-.182.98-.273 1.571-.273.663 0 1.275.104 1.835.312.56.207 1.037.497 1.431.87l-.521.988Z" fill="#13304F"/><defs><clipPath id="a"><path fill="#fff" transform="translate(0 .435)" d="M0 0h42.577v73.363H0z"/></clipPath></defs></svg>